<svg width="232" height="137" viewBox="0 0 232 137" fill="none" xmlns="http://www.w3.org/2000/svg">
<path d="M150.271 73.4101L145.123 59.3292L139.839 73.4101H150.271ZM150.888 75.3333H139.221L137.162 80.8282C136.682 82.202 136.407 83.1636 136.407 83.8505C136.407 84.4 136.613 84.8808 137.025 85.2242C137.437 85.6363 138.397 85.9111 139.839 85.9798V86.9414H130.299V85.9798C131.534 85.705 132.358 85.3616 132.77 84.9495C133.525 84.1252 134.348 82.4767 135.309 79.9353L145.947 51.3616H146.702L157.202 80.3474C158.026 82.6828 158.781 84.1939 159.467 84.8808C160.154 85.5676 161.114 85.9798 162.35 86.0484V87.0101H150.408V86.0484C151.643 85.9798 152.398 85.7737 152.879 85.3616C153.359 84.9495 153.496 84.4686 153.496 83.9192C153.496 83.1636 153.222 81.9959 152.604 80.3474C152.673 80.3474 150.888 75.3333 150.888 75.3333Z" fill="#AA4A5F"/>
<path d="M90.6981 73.4101L85.5507 59.3293L80.2661 73.4101H90.6981ZM91.3158 75.3334H79.6484L77.5894 80.8283C77.109 82.2021 76.8345 83.1637 76.8345 83.8505C76.8345 84.4 77.0404 84.8808 77.4522 85.2243C77.864 85.6364 78.8248 85.9111 80.2661 85.9798V86.9414H70.7949V85.9798C72.0303 85.7051 72.8539 85.3617 73.2657 84.9495C74.0206 84.1253 74.8442 82.4768 75.805 79.9354L86.4429 51.293H87.1979L97.6985 80.2788C98.5221 82.6142 99.3457 84.1253 100.032 84.8122C100.718 85.499 101.679 85.9111 102.915 85.9798V86.9414H90.9726V85.9798C92.208 85.9111 92.9629 85.7051 93.4433 85.293C93.9238 84.8808 94.061 84.4 94.061 83.8505C94.061 83.095 93.7865 81.9273 93.1688 80.2788L91.3158 75.3334Z" fill="#AA4A5F"/>
<path d="M110.738 84.4686C112.591 84.9494 114.17 85.1554 115.474 85.1554C118.906 85.1554 121.788 83.7817 124.053 80.9655C126.318 78.1494 127.485 74.3716 127.485 69.6322C127.485 64.8928 126.386 60.2221 124.053 57.4059C121.719 54.5898 118.837 53.216 115.337 53.216C113.964 53.216 112.454 53.4221 110.738 53.9716V84.4686ZM102.091 87.01V86.0484H103.189C104.493 86.0484 105.385 85.5676 105.934 84.6059C106.277 84.0564 106.415 82.7514 106.415 80.8282V57.5433C106.415 55.3453 106.209 54.0403 105.797 53.4908C105.179 52.7352 104.356 52.3918 103.189 52.3918H102.091V51.4302H114.376C118.906 51.4302 122.337 52.0484 124.671 53.216C127.004 54.3837 128.926 56.3756 130.367 59.1231C131.808 61.8706 132.495 65.8544 132.495 69.4948C132.495 74.3029 131.191 78.3554 128.651 81.6524C125.769 85.2928 121.445 87.0787 115.543 87.0787L102.091 87.01Z" fill="#AA4A5F"/>
<path d="M57.4122 84.0565H57.275L57.4122 82.4767H57.5495V82.6827C57.5495 82.8888 57.6181 83.0262 57.7554 83.0949C57.824 83.1636 57.9613 83.1636 58.2358 83.2322L60.0889 83.3696C60.5693 83.3696 60.9124 83.507 61.1183 83.5757C61.3242 83.7131 61.5987 83.8504 61.736 84.1939C61.8733 84.4686 61.9419 84.812 61.9419 85.2929C61.8733 85.7737 61.8046 86.1858 61.5987 86.3918C61.3929 86.5979 61.187 86.804 60.8438 86.8726C60.6379 86.9413 60.2261 86.9413 59.7457 86.8726L57.9613 86.7353C57.6867 86.7353 57.4809 86.7353 57.4122 86.804C57.3436 86.8726 57.275 87.01 57.275 87.1474V87.3535H57.1377L57.275 85.4302H57.4122V85.6363C57.4122 85.8423 57.4122 85.9797 57.5495 86.0484C57.6181 86.1171 57.7554 86.1858 58.0299 86.1858L60.0202 86.3232C60.2261 86.3232 60.432 86.3232 60.6379 86.3232C60.8438 86.3232 61.0497 86.2545 61.187 86.1858C61.3242 86.1171 61.3929 85.9797 61.5301 85.8423C61.5987 85.705 61.6674 85.4989 61.6674 85.2242C61.6674 84.9494 61.6674 84.6747 61.5301 84.3999C61.3929 84.1939 61.2556 83.9878 61.0497 83.8504C60.8438 83.713 60.5006 83.6444 60.0202 83.6444L58.1672 83.507C57.8926 83.507 57.6867 83.507 57.6181 83.5757C57.4809 83.6444 57.4809 83.7817 57.4122 83.9191V84.0565Z" fill="#366176"/>
<path d="M57.9609 78.5616L58.2355 77.3939L62.1475 75.402L59.6081 74.8525C59.3336 74.7838 59.1277 74.7838 59.059 74.8525C58.9218 74.9212 58.8531 75.0586 58.8531 75.196L58.7845 75.3333H58.6473L58.9904 73.7535H59.1277L59.059 73.9596C58.9904 74.1657 59.059 74.303 59.1277 74.3717C59.1963 74.4404 59.3336 74.5091 59.6081 74.5778L63.3142 75.402V75.5394L59.059 77.6687L61.8043 78.2869C62.0788 78.3556 62.2847 78.3556 62.3534 78.2869C62.4906 78.2182 62.5593 78.0808 62.5593 77.9434L62.6279 77.8061H62.7651L62.422 79.3859H62.2847L62.3534 79.1798C62.422 78.9737 62.3534 78.8364 62.2847 78.7677C62.2161 78.699 62.0788 78.6303 61.8043 78.5616L58.7159 77.8748C58.51 77.9434 58.4414 78.0808 58.3727 78.0808C58.3041 78.0808 58.2355 78.2182 58.1668 78.3556C58.0982 78.4242 58.0982 78.4929 58.0982 78.6303H57.9609V78.5616Z" fill="#366176"/>
<path d="M65.0985 69.4948L65.2358 69.5635L64.6181 71.4181L64.4808 71.3494L64.5494 71.212C64.6181 71.006 64.6181 70.8686 64.5494 70.7999C64.4808 70.7312 64.3435 70.6625 64.069 70.5251L61.3238 69.4948C61.1179 69.4262 60.9806 69.3575 60.912 69.3575C60.8433 69.3575 60.7747 69.3575 60.7061 69.4261C60.6374 69.4948 60.5688 69.5635 60.5002 69.7009L60.4315 69.8383L60.2943 69.7696L60.912 67.915L61.0492 67.9837L60.9806 68.1211C60.912 68.3272 60.912 68.4645 60.9806 68.5332C61.0492 68.6019 61.1865 68.7393 61.461 68.808L64.2063 69.8383C64.4122 69.907 64.5494 69.9756 64.6181 69.9756C64.6867 69.9756 64.7553 69.9756 64.824 69.907C64.8926 69.8383 64.9612 69.7696 65.0299 69.6322L65.0985 69.4948ZM59.4707 68.5332C59.4707 68.5332 59.5393 68.3958 59.6766 68.3272C59.7452 68.2585 59.8825 68.2585 59.9511 68.3272C60.0198 68.3958 60.157 68.3958 60.157 68.5332C60.2257 68.6019 60.2257 68.7393 60.157 68.808C60.0884 68.8767 60.0884 69.014 59.9511 69.014C59.8825 69.0827 59.7452 69.0827 59.6766 69.014C59.608 68.9453 59.4707 68.9453 59.4707 68.808C59.4707 68.7393 59.4707 68.6706 59.4707 68.5332Z" fill="#366176"/>
<path d="M64.6178 59.9475L64.7551 60.0162C64.6864 60.1536 64.6864 60.2909 64.7551 60.4283C64.8237 60.5657 64.8923 60.7718 65.0296 60.9091L67.7749 64.0687L67.7062 64.2061L63.4511 63.9313C63.2452 63.9313 63.1079 63.9313 63.0393 63.9313C62.9707 63.9313 62.8334 64 62.8334 64.0687C62.8334 64.1374 62.6961 64.2061 62.6275 64.3435L62.4902 64.2748L63.3138 62.6263L63.4511 62.695C63.3824 62.901 63.3138 63.0384 63.3824 63.1071C63.3824 63.1758 63.4511 63.2445 63.5197 63.3132C63.5883 63.3819 63.7942 63.3819 64.0688 63.4505L66.9513 63.6566L65.0296 61.3899C64.8237 61.1839 64.6864 61.0465 64.6178 60.9778C64.5492 60.9778 64.4805 60.9778 64.4119 60.9778C64.3433 61.0465 64.206 61.1152 64.1374 61.1839L64.0688 61.2526L63.9315 61.1839L64.6178 59.9475Z" fill="#366176"/>
<path d="M67.7753 55.4827L69.2166 56.513L69.8342 55.6888C69.9715 55.4827 70.0401 55.3453 70.0401 55.208C70.0401 55.0706 69.9029 54.9332 69.697 54.7272L69.7656 54.5898L71.0696 55.4827L71.001 55.6201C70.7951 55.4827 70.6578 55.4827 70.5892 55.414C70.5206 55.414 70.3833 55.414 70.3147 55.4827C70.246 55.5514 70.1088 55.6201 70.0401 55.7575L69.4225 56.5817L70.6578 57.4746C70.8637 57.612 70.9323 57.6807 71.001 57.6807C71.0696 57.6807 71.0696 57.6807 71.1382 57.6807C71.2069 57.6807 71.2755 57.612 71.3441 57.4746L71.7559 56.8565C71.8932 56.6504 71.9618 56.513 72.0305 56.3756C72.0991 56.2383 72.0991 56.1696 72.0305 55.9635C72.0305 55.7575 71.8932 55.5514 71.7559 55.2767L71.8246 55.1393L72.5109 56.1009L70.5206 58.9858L70.3833 58.9171L70.4519 58.7797C70.4519 58.7797 70.5892 58.5736 70.5892 58.5049C70.5892 58.4363 70.5892 58.3676 70.5206 58.2989C70.4519 58.2302 70.3833 58.1615 70.1774 58.0241L67.7753 56.307C67.5694 56.1009 67.3635 56.1009 67.2949 56.1009C67.1576 56.1009 67.089 56.2383 66.9517 56.3756V56.5817L66.8145 56.513L68.8048 53.6282L69.6283 54.1777L69.5597 54.315C69.3538 54.1777 69.1479 54.1777 69.0793 54.1777C68.942 54.1777 68.8734 54.1777 68.8048 54.2464C68.7361 54.315 68.5989 54.4524 68.5302 54.5898L67.7753 55.4827Z" fill="#366176"/>
<path d="M74.158 50.606L74.2266 50.5374L74.2952 50.4687C74.5698 50.1252 74.7756 49.8505 74.7756 49.5757C74.7756 49.301 74.707 49.0262 74.5011 48.8202C74.2952 48.6141 74.0893 48.5454 73.8148 48.5454C73.5403 48.5454 73.3344 48.6828 73.1285 48.8889C73.0599 48.9576 72.9226 49.0949 72.854 49.301C72.7853 49.301 74.158 50.606 74.158 50.606ZM78.07 49.8505L77.2464 50.7434L74.6384 50.4C74.6384 50.4 74.5011 50.5374 74.4325 50.606L74.3639 50.6747L74.2952 50.7434L75.2561 51.6363C75.462 51.8424 75.5992 51.9111 75.7365 51.9111C75.8738 51.9111 76.011 51.8424 76.0796 51.705L76.2169 51.5677L76.2855 51.6363L74.9815 53.1475L74.9129 53.0788L75.0502 52.9414C75.1874 52.804 75.2561 52.6666 75.1874 52.5293C75.1874 52.4606 75.0502 52.3232 74.9129 52.1172L72.7853 50.1252C72.5794 49.9192 72.4422 49.8505 72.3049 49.8505C72.1676 49.8505 72.0304 49.9192 71.9618 50.0565L71.8245 50.1252L71.7559 50.0565L72.854 48.8202C73.1971 48.4767 73.4716 48.202 73.6775 48.1333C73.8834 47.9959 74.0893 47.9273 74.3639 47.9959C74.5698 47.9959 74.8443 48.1333 74.9815 48.2707C75.1874 48.4767 75.3247 48.6828 75.3247 48.9576C75.3247 49.2323 75.2561 49.5757 75.0502 49.8505L76.6287 50.0565C76.9719 50.1252 77.2464 50.1252 77.4523 50.0565C77.6582 49.9879 77.7954 49.9192 78.0013 49.7818L78.07 49.8505Z" fill="#366176"/>
<path d="M79.9231 42.0889L80.9525 43.3252L80.8839 43.3939C80.678 43.1879 80.4721 43.0505 80.2662 42.9818C80.0603 42.9131 79.8544 42.9131 79.6485 42.9131C79.4426 42.9131 79.2367 43.0505 79.0995 43.1879C78.8936 43.3252 78.8249 43.5313 78.8249 43.7374C78.8249 43.9434 78.825 44.0808 78.9622 44.2868C79.0308 44.4242 79.1681 44.4929 79.3054 44.4929C79.5113 44.5616 79.9231 44.4929 80.4721 44.3555C80.9525 44.2868 81.2957 44.2182 81.5016 44.2182C81.7075 44.2182 81.8447 44.2868 82.0506 44.3555C82.2565 44.4242 82.3252 44.5616 82.4624 44.699C82.6683 44.9737 82.737 45.3171 82.6683 45.6606C82.5997 46.004 82.4624 46.3475 82.1193 46.6222C81.982 46.6909 81.9134 46.7596 81.8447 46.8283C81.7761 46.8969 81.6388 46.8969 81.433 47.0343C81.2271 47.103 81.0898 47.1717 81.0212 47.2404C80.9525 47.3091 80.9525 47.3091 80.9525 47.3778C80.9525 47.4464 80.9525 47.5151 81.0212 47.5838L80.9525 47.6525L79.9917 46.4161L80.0603 46.3475C80.3348 46.5535 80.5407 46.6909 80.678 46.7596C80.8839 46.8283 81.0898 46.8283 81.2957 46.7596C81.5016 46.6909 81.7075 46.6222 81.9134 46.4848C82.1193 46.2788 82.2565 46.1414 82.2565 45.8666C82.3252 45.6606 82.2565 45.4545 82.1193 45.3171C82.0506 45.2485 81.9134 45.1798 81.8447 45.1111C81.7761 45.0424 81.5702 45.0424 81.433 45.0424C81.2957 45.0424 81.0212 45.1111 80.6094 45.1798C80.1976 45.2485 79.8544 45.3171 79.6485 45.3171C79.4426 45.3171 79.2367 45.3171 79.0995 45.2485C78.8936 45.1798 78.825 45.0424 78.6877 44.905C78.4818 44.6303 78.4132 44.3555 78.4818 44.0121C78.5504 43.6687 78.6877 43.3939 79.0308 43.1192C79.2367 42.9818 79.4426 42.8444 79.7172 42.7757C79.8544 42.707 79.9231 42.707 79.9917 42.6384C80.0603 42.5697 80.0603 42.5697 80.0603 42.501C79.9231 42.2949 79.9231 42.2262 79.9231 42.0889Z" fill="#366176"/>
<path d="M84.0406 37.9676C84.0406 37.9676 84.2465 37.8989 84.3151 37.8989C84.3837 37.8989 84.521 37.9676 84.521 38.0363C84.5896 38.105 84.5896 38.2424 84.5896 38.311C84.5896 38.4484 84.521 38.5171 84.4524 38.5171C84.3837 38.5171 84.2465 38.5858 84.1778 38.5858C84.1092 38.5858 83.972 38.5171 83.972 38.4484C83.9033 38.3797 83.9033 38.2424 83.9033 38.1737C83.9033 38.105 83.972 38.0363 84.0406 37.9676ZM87.884 42.1575L87.9526 42.2949L86.3054 43.3252L86.2368 43.1878L86.3741 43.1191C86.5113 42.9818 86.58 42.9131 86.6486 42.7757C86.6486 42.707 86.58 42.5696 86.4427 42.2949L84.8642 39.8222C84.7269 39.6161 84.6583 39.4787 84.5896 39.4787C84.521 39.41 84.4524 39.41 84.3837 39.41C84.2465 39.41 84.1778 39.4787 84.1092 39.5474L83.972 39.6161L83.9033 39.4787L85.5505 38.4484L85.6191 38.5858L85.4818 38.6545C85.3446 38.7232 85.276 38.8605 85.2073 38.9979C85.2073 39.0666 85.276 39.2727 85.4132 39.4787L86.9917 41.9515C87.129 42.1575 87.1976 42.2949 87.2663 42.2949C87.3349 42.3636 87.4035 42.3636 87.4722 42.3636C87.6094 42.3636 87.6781 42.2949 87.7467 42.2949L87.884 42.1575Z" fill="#366176"/>
<path d="M92.4829 34.7393L92.9633 35.7009L92.8261 35.7696C92.6888 35.6322 92.6202 35.4948 92.5515 35.4261C92.4143 35.3574 92.3456 35.2888 92.2084 35.2888C92.0711 35.2888 91.9339 35.2888 91.728 35.4261L91.1103 35.7009L92.6202 38.7918C92.7574 39.0665 92.8261 39.2039 92.8947 39.2039C93.032 39.2726 93.1692 39.2726 93.3065 39.1352L93.4437 39.0665L93.5124 39.2039L91.7966 40.0281L91.728 39.8908L91.8652 39.8221C92.0711 39.7534 92.1397 39.616 92.1397 39.4786C92.1397 39.41 92.0711 39.2726 92.0025 38.9978L90.4926 35.9069L90.0122 36.113C89.8063 36.1817 89.669 36.3191 89.6004 36.3191C89.5317 36.3877 89.4631 36.5251 89.3945 36.6625C89.3945 36.7999 89.3945 36.9372 89.4631 37.1433L89.3259 37.212L88.9141 36.2504L92.4829 34.7393Z" fill="#366176"/>
<path d="M97.7669 33.0221L98.3159 34.7393L99.2768 34.4645C99.4827 34.3958 99.6886 34.2584 99.7572 34.1898C99.8258 34.0524 99.8258 33.8463 99.7572 33.6403L99.8945 33.5716L100.375 35.0827L100.238 35.1514C100.169 34.9453 100.032 34.8079 100.032 34.8079C99.9631 34.7392 99.8945 34.6706 99.8258 34.6706C99.6886 34.6706 99.6199 34.6706 99.414 34.7393L98.4532 35.014L98.9336 36.4564C99.0023 36.6625 99.0709 36.7312 99.0709 36.7999C99.0709 36.8685 99.1395 36.8685 99.2082 36.8685C99.2768 36.8685 99.3454 36.8685 99.4827 36.7999L100.238 36.5938C100.444 36.5251 100.649 36.4564 100.787 36.3877C100.924 36.319 100.993 36.1817 101.061 36.113C101.13 35.9069 101.198 35.7009 101.267 35.4261L101.404 35.3574V36.5251L98.0414 37.5554L97.9728 37.418L97.9042 37.3494C97.9042 37.3494 98.11 37.2807 98.1787 37.1433C98.2473 37.0746 98.2473 37.0059 98.2473 36.9372C98.2473 36.8685 98.2473 36.7312 98.1787 36.5251L97.2865 33.7089C97.2178 33.4342 97.0806 33.2968 97.0806 33.2281C96.9433 33.1595 96.8747 33.1595 96.6688 33.2281L96.5315 33.2968L96.4629 33.1595L99.8258 32.1292L100.169 33.0908L100.032 33.1595C99.8945 32.9534 99.8258 32.816 99.7572 32.7473C99.6886 32.6786 99.5513 32.61 99.4827 32.61C99.414 32.61 99.2768 32.61 99.0023 32.6786L97.7669 33.0221Z" fill="#366176"/>
<path d="M107.993 30.2747L108.199 31.305H108.062C107.993 31.1676 107.925 31.0302 107.856 30.9615C107.787 30.8242 107.65 30.7555 107.513 30.7555C107.376 30.6868 107.238 30.6868 107.032 30.7555L106.415 30.8928L107.032 34.3272C107.101 34.6019 107.17 34.7393 107.238 34.808C107.376 34.8767 107.444 34.9454 107.65 34.8767H107.787V34.9454L105.934 35.2888V35.1514H106.072C106.277 35.0827 106.415 35.0141 106.415 34.8767C106.483 34.808 106.415 34.6706 106.415 34.3959L105.797 30.9615L105.248 31.0302C105.042 31.0989 104.905 31.0989 104.836 31.1676C104.699 31.2363 104.63 31.305 104.63 31.4423C104.562 31.5797 104.562 31.7171 104.562 31.9231H104.424L104.287 30.8928L107.993 30.2747Z" fill="#366176"/>
<path d="M131.74 31.8546V31.7172L133.319 32.1293L133.25 32.2667L133.044 32.198C132.838 32.1293 132.701 32.198 132.564 32.3354C132.495 32.4041 132.426 32.5415 132.358 32.8162L131.877 34.6021C131.74 35.0142 131.672 35.3576 131.466 35.6324C131.328 35.8384 131.122 36.0445 130.779 36.1132C130.505 36.2506 130.093 36.2506 129.681 36.1132C129.201 35.9758 128.858 35.8384 128.652 35.5637C128.446 35.3576 128.309 35.0829 128.309 34.7394C128.309 34.5334 128.377 34.1213 128.514 33.6405L128.926 31.9233C128.995 31.6485 128.995 31.4425 128.926 31.3738C128.858 31.3051 128.72 31.1677 128.583 31.1677L128.377 31.099V30.9617L130.299 31.4425V31.5799L130.093 31.5112C129.887 31.4425 129.75 31.5112 129.681 31.5799C129.613 31.6485 129.544 31.7859 129.475 32.0607L128.995 33.9839C128.926 34.19 128.926 34.3273 128.858 34.6021C128.789 34.8768 128.858 35.0142 128.926 35.1516C128.995 35.2889 129.064 35.4263 129.201 35.5637C129.338 35.7011 129.544 35.7697 129.75 35.8384C130.024 35.9071 130.299 35.9071 130.573 35.8384C130.848 35.7697 131.054 35.6324 131.191 35.495C131.328 35.3576 131.466 35.0142 131.534 34.5334L132.015 32.7475C132.083 32.4728 132.083 32.2667 132.083 32.198C132.015 32.0607 131.877 31.992 131.74 31.992V31.8546Z" fill="#366176"/>
<path d="M137.436 33.5029L138.534 33.9837L139.769 38.1736L140.799 35.7696C140.936 35.4948 140.936 35.3575 140.936 35.2201C140.868 35.0827 140.799 35.014 140.662 34.9454L140.524 34.8767L140.593 34.7393L142.034 35.3575L141.966 35.4948L141.828 35.4262C141.622 35.3575 141.485 35.3575 141.417 35.4262C141.348 35.4948 141.279 35.6322 141.142 35.8383L139.632 39.3413L139.495 39.2726L138.191 34.7393L137.093 37.2807C136.956 37.5555 136.956 37.6928 136.956 37.8302C137.024 37.9676 137.093 38.0363 137.23 38.1049L137.367 38.1736L137.299 38.311L135.857 37.6928L135.926 37.5555L136.063 37.6241C136.269 37.6928 136.406 37.6928 136.544 37.6241C136.612 37.5555 136.681 37.4181 136.818 37.212L138.054 34.3272C137.985 34.1211 137.916 33.9837 137.916 33.915C137.848 33.8464 137.779 33.7777 137.71 33.709C137.642 33.6403 137.573 33.6403 137.436 33.5716V33.5029Z" fill="#366176"/>
<path d="M145.397 42.3635L145.329 42.5009L143.682 41.4706L143.75 41.3332L143.888 41.4706C144.025 41.5393 144.162 41.6079 144.299 41.5393C144.368 41.4706 144.505 41.3332 144.642 41.1271L146.152 38.5857C146.29 38.3797 146.358 38.2423 146.358 38.1736C146.358 38.1049 146.358 38.0362 146.29 37.9675C146.221 37.8989 146.152 37.7615 146.084 37.7615L145.946 37.6928L146.015 37.5554L147.662 38.5857L147.594 38.7231L147.456 38.6544C147.319 38.5857 147.182 38.517 147.045 38.5857C146.976 38.5857 146.839 38.7918 146.701 38.9978L145.26 41.4706C145.123 41.6766 145.054 41.814 145.054 41.8827C145.054 41.9514 145.054 42.0201 145.123 42.0888C145.192 42.1574 145.26 42.2948 145.329 42.2948L145.397 42.3635Z" fill="#366176"/>
<path d="M155.212 44.0808L155.144 44.2182C155.006 44.1495 154.869 44.0808 154.732 44.0808C154.594 44.0808 154.389 44.1495 154.183 44.2869L150.545 46.3475L150.477 46.2788L151.575 42.1576C151.643 41.9515 151.643 41.8141 151.643 41.7455C151.643 41.6768 151.643 41.5394 151.575 41.4707C151.506 41.402 151.437 41.2647 151.369 41.196L151.437 41.0586L152.879 42.2263L152.81 42.295C152.604 42.1576 152.536 42.0889 152.398 42.0889C152.33 42.0889 152.261 42.0889 152.192 42.1576C152.124 42.2263 152.055 42.4323 151.986 42.6384L151.232 45.4546L153.702 44.0808C153.908 43.9434 154.114 43.8748 154.183 43.7374C154.251 43.6687 154.251 43.6 154.251 43.5313C154.251 43.4626 154.183 43.3253 154.045 43.2566L153.977 43.1879L154.045 43.1192L155.212 44.0808Z" fill="#366176"/>
<path d="M159.261 48.3393L157.957 49.5757L158.643 50.3312C158.849 50.5373 158.987 50.606 159.055 50.606C159.193 50.606 159.398 50.5373 159.604 50.3999L159.673 50.4686L158.506 51.5676L158.438 51.4989C158.575 51.2928 158.643 51.2242 158.643 51.1555C158.643 51.0868 158.643 50.9494 158.643 50.8807C158.643 50.812 158.506 50.6747 158.438 50.5373L157.751 49.7817L156.653 50.812C156.516 50.9494 156.447 51.0181 156.379 51.0868C156.379 51.1555 156.379 51.1555 156.379 51.2241C156.379 51.2928 156.447 51.3615 156.516 51.4302L157.065 51.9797C157.271 52.1858 157.408 52.2545 157.477 52.3231C157.614 52.3918 157.683 52.3918 157.889 52.4605C158.094 52.4605 158.369 52.4605 158.643 52.3231L158.712 52.4605L157.614 52.9413L155.212 50.3999L155.281 50.3312L155.418 50.4686C155.418 50.4686 155.555 50.606 155.692 50.6747C155.761 50.6747 155.83 50.6747 155.898 50.6747C155.967 50.6747 156.104 50.5373 156.241 50.3999L158.438 48.408C158.643 48.2019 158.781 48.0646 158.781 47.9959C158.781 47.9272 158.712 47.7898 158.575 47.5837L158.438 47.4464L158.506 47.3777L160.908 49.9191L160.222 50.606L160.153 50.5373C160.291 50.3312 160.359 50.1938 160.428 50.0565C160.428 49.9191 160.428 49.8504 160.428 49.713C160.359 49.6444 160.291 49.507 160.153 49.3696L159.261 48.3393Z" fill="#366176"/>
<path d="M162.967 55.8949L163.036 55.9636L163.104 56.0323C163.31 56.3757 163.585 56.5818 163.859 56.6505C164.134 56.7192 164.408 56.6505 164.614 56.5131C164.82 56.3757 164.957 56.1697 165.026 55.8949C165.095 55.6889 165.026 55.4141 164.82 55.1394C164.751 55.002 164.614 54.9333 164.477 54.7273C164.545 54.8646 162.967 55.8949 162.967 55.8949ZM162.898 59.8788L162.212 58.8485L163.104 56.3757C163.104 56.3757 162.967 56.1697 162.898 56.1697L162.83 56.101L162.761 56.0323L161.663 56.7879C161.457 56.9252 161.32 57.0626 161.251 57.1313C161.183 57.2687 161.251 57.406 161.32 57.5434L161.457 57.6808L161.32 57.7495L160.222 56.1697L160.359 56.101L160.428 56.2384C160.565 56.3757 160.633 56.4444 160.839 56.4444C160.908 56.4444 161.045 56.3757 161.251 56.2384L163.653 54.5899C163.859 54.3838 163.996 54.3151 164.065 54.1778C164.065 54.0404 164.065 53.903 163.928 53.7656L163.859 53.6283L163.996 53.5596L164.957 54.9333C165.232 55.3454 165.438 55.6202 165.506 55.8949C165.575 56.101 165.575 56.3757 165.506 56.5818C165.438 56.7879 165.3 56.9939 165.095 57.2C164.889 57.3374 164.614 57.406 164.34 57.406C164.065 57.3373 163.791 57.2 163.516 56.9252L162.967 58.4363C162.83 58.7798 162.761 59.0545 162.761 59.1919C162.761 59.398 162.83 59.604 162.967 59.8101L162.898 59.8788Z" fill="#366176"/>
<path d="M170.242 63.7939L168.801 64.4807L168.733 64.3434C169.007 64.1373 169.144 63.9999 169.282 63.7939C169.419 63.5878 169.488 63.4504 169.488 63.1757C169.488 62.9696 169.488 62.7636 169.35 62.5575C169.213 62.3514 169.076 62.2141 168.87 62.1454C168.664 62.0767 168.527 62.0767 168.321 62.1454C168.184 62.2141 168.115 62.2828 168.046 62.4201C167.978 62.6262 167.909 63.0383 167.909 63.5878C167.909 64.0686 167.84 64.4121 167.84 64.6181C167.772 64.8242 167.703 64.9616 167.634 65.0989C167.497 65.2363 167.429 65.3737 167.223 65.4424C166.948 65.5797 166.605 65.6484 166.262 65.511C165.919 65.3737 165.644 65.0989 165.438 64.7555C165.37 64.6181 165.301 64.5494 165.301 64.4121C165.301 64.3434 165.232 64.206 165.232 63.9999C165.164 63.7939 165.164 63.6565 165.164 63.5878C165.164 63.5191 165.095 63.5191 165.026 63.5191C164.958 63.5191 164.889 63.5191 164.821 63.5191L164.752 63.3818L166.125 62.6949L166.193 62.8323C165.919 63.0383 165.713 63.1757 165.644 63.3818C165.507 63.5191 165.507 63.7252 165.507 63.9999C165.507 64.206 165.576 64.4807 165.644 64.6868C165.781 64.8929 165.919 65.0989 166.125 65.1676C166.33 65.2363 166.536 65.2363 166.674 65.1676C166.811 65.0989 166.88 65.0302 166.948 64.9615C167.017 64.8242 167.085 64.7555 167.085 64.5494C167.085 64.4121 167.154 64.1373 167.154 63.7252C167.154 63.3131 167.223 62.9696 167.291 62.7636C167.36 62.5575 167.429 62.4201 167.497 62.2141C167.634 62.0767 167.703 61.9393 167.909 61.8706C168.184 61.7333 168.527 61.7333 168.87 61.802C169.213 61.8706 169.419 62.1454 169.625 62.4888C169.762 62.6949 169.831 62.9696 169.831 63.2444C169.831 63.3818 169.831 63.4504 169.899 63.5191C169.899 63.5878 169.968 63.5878 170.037 63.6565C170.105 63.6565 170.174 63.6565 170.242 63.6565V63.7939Z" fill="#366176"/>
<path d="M168.595 71.8303L168.458 71.8989L167.84 70.0444L167.977 69.9757L168.046 70.1131C168.114 70.3191 168.183 70.3878 168.32 70.4565C168.389 70.4565 168.595 70.4565 168.869 70.3878L171.615 69.4262C171.82 69.3575 171.958 69.2888 172.026 69.2202C172.095 69.1515 172.095 69.0828 172.095 69.0141C172.095 68.8767 172.095 68.808 172.095 68.6707L172.026 68.5333L172.164 68.4646L172.781 70.3191L172.644 70.3878L172.575 70.2505C172.507 70.0444 172.438 69.9757 172.301 69.907C172.232 69.907 172.026 69.907 171.752 69.9757L169.007 70.9373C168.801 71.006 168.663 71.0747 168.595 71.1434C168.526 71.2121 168.526 71.2808 168.526 71.3494C168.526 71.4868 168.526 71.5555 168.526 71.6242L168.595 71.8303Z" fill="#366176"/>
<path d="M174.84 78.4929L173.811 78.7676V78.5616C173.948 78.4929 174.086 78.4242 174.154 78.3555C174.291 78.2868 174.36 78.1494 174.36 78.0121C174.429 77.8747 174.429 77.7373 174.36 77.5312L174.223 76.9131L170.791 77.5999C170.517 77.6686 170.379 77.7373 170.311 77.806C170.242 77.9434 170.242 78.0121 170.242 78.2181L170.311 78.3555H170.174L169.762 76.5009H169.899V76.6383C169.968 76.8444 170.036 76.9131 170.174 76.9818C170.242 76.9818 170.379 76.9818 170.654 76.9818L174.086 76.2949L173.948 75.7454C173.88 75.5393 173.88 75.402 173.811 75.3333C173.742 75.1959 173.605 75.1272 173.536 75.1272C173.399 75.0585 173.262 75.0585 173.056 75.0585V74.9211L174.086 74.7151L174.84 78.4929Z" fill="#366176"/>
<path d="M175.664 86.2546L175.733 87.8344H175.595V87.7657C175.595 87.7657 175.527 87.6283 175.527 87.5596C175.458 87.4222 175.389 87.3536 175.321 87.2849C175.252 87.2162 175.046 87.0788 174.84 87.0101L173.056 85.9798L171.958 86.0485C171.683 86.0485 171.477 86.1172 171.409 86.1859C171.34 86.2546 171.272 86.3919 171.272 86.598V86.7354H171.134L170.997 84.8121H171.134V84.9495C171.134 85.1556 171.203 85.293 171.34 85.3616C171.409 85.4303 171.546 85.4303 171.821 85.4303L172.85 85.3616L174.703 83.9879C174.909 83.8505 175.046 83.7132 175.115 83.6445C175.184 83.5758 175.252 83.4384 175.321 83.301C175.321 83.2323 175.321 83.1637 175.321 83.095H175.458L175.595 85.0182H175.458V84.9495C175.458 84.9495 175.389 84.7435 175.321 84.6748C175.252 84.6061 175.184 84.5374 175.115 84.5374C175.046 84.5374 174.909 84.6061 174.703 84.7435L173.262 85.7738L174.703 86.598C174.909 86.7354 175.046 86.8041 175.184 86.8041C175.252 86.8041 175.321 86.8041 175.389 86.7354C175.458 86.6667 175.458 86.6667 175.527 86.598C175.527 86.5293 175.595 86.4606 175.527 86.3233L175.664 86.2546Z" fill="#366176"/>
<path d="M175.733 91.4747H57V94.6343H175.733V91.4747Z" fill="#366176"/>
<path d="M169.83 95.5272H62.9023V98.6868H169.83V95.5272Z" fill="#366176"/>
<path d="M164.409 99.5111H68.2559V102.671H164.409V99.5111Z" fill="#366176"/>
<path d="M158.85 103.426H73.8838V106.586H158.85V103.426Z" fill="#366176"/>
<path d="M119.318 32.198V32.6788H118.837L118.494 33.0222L118.151 32.6788H117.67V32.198L117.327 31.8545L117.67 31.5111V31.0303H118.151L118.494 30.6869L118.837 31.0303H119.318V31.5111L119.661 31.8545L119.318 32.198ZM119.729 31.3051V30.5495H118.974L118.425 30L117.876 30.5495H117.121V31.3051L116.572 31.8545L117.121 32.404V33.1596H117.876L118.425 33.7091L118.974 33.1596H119.729V32.404L120.278 31.8545L119.729 31.3051Z" fill="#366176"/>
<rect x="1" y="1" width="230" height="135" stroke="#A6A8AB" stroke-dasharray="1 1"/>
</svg>
